<?xml version="1.0" standalone="no"?>
<!DOCTYPE svg PUBLIC "-//W3C//DTD SVG 20010904//EN"
 "http://www.w3.org/TR/2001/REC-SVG-20010904/DTD/svg10.dtd">
<svg version="1.0" xmlns="http://www.w3.org/2000/svg"
 width="800.000000pt" height="800.000000pt" viewBox="0 0 800.000000 800.000000"
 preserveAspectRatio="xMidYMid meet">
<metadata>
Created by potrace 1.11, written by Peter Selinger 2001-2013
</metadata>
<g transform="translate(0.000000,800.000000) scale(0.100000,-0.100000)"
fill="#000000" stroke="none">
<path d="M4499 5626 c-2 -2 -49 -6 -104 -10 -126 -7 -171 -13 -319 -37 -236
-39 -319 -65 -611 -189 -11 -4 -87 -34 -170 -65 -82 -31 -159 -60 -170 -65
-11 -5 -209 -82 -440 -171 -231 -88 -566 -217 -745 -286 -347 -134 -394 -152
-820 -316 -151 -58 -304 -115 -339 -127 -370 -123 -607 -392 -717 -815 -19
-70 -22 -88 -30 -135 -3 -19 -7 -46 -10 -60 -12 -71 -18 -156 -18 -259 l-1
-114 279 -1 279 -1 17 -50 c113 -331 426 -557 762 -549 112 2 169 11 258 41
167 55 317 169 411 313 48 73 83 145 98 201 l13 46 1640 -1 1640 -1 19 -55
c40 -116 140 -276 206 -330 89 -74 118 -93 183 -129 162 -87 379 -115 558 -71
275 68 477 251 576 523 l22 58 107 4 c58 2 126 6 149 10 24 4 57 9 73 11 95
14 210 90 211 140 1 19 12 118 19 164 2 14 9 70 15 125 15 137 19 162 25 204
3 20 7 56 10 81 2 25 6 61 9 80 2 19 7 62 11 95 3 33 8 74 10 90 2 17 7 53 10
80 3 28 8 64 10 81 2 17 7 57 11 89 3 32 7 66 9 74 1 9 6 50 10 91 l7 75 -37
49 c-21 26 -64 65 -96 86 -52 34 -190 86 -246 93 -12 2 -25 6 -28 9 -6 5 82
257 95 271 7 8 97 -11 331 -66 53 -13 58 -12 85 7 45 32 67 56 110 121 75 112
130 266 120 338 -6 50 -3 44 -18 44 -20 1 -279 15 -318 18 -36 3 -200 13 -325
20 -38 2 -101 7 -140 10 -38 2 -117 7 -175 10 -58 3 -123 8 -145 9 -22 2 -103
7 -180 11 -77 4 -143 9 -147 12 -11 6 -151 -288 -141 -297 4 -5 25 -11 47 -14
21 -4 41 -8 45 -11 4 -2 19 -6 34 -9 28 -5 177 -40 266 -62 30 -8 56 -16 59
-18 2 -3 -3 -21 -12 -41 -17 -37 -43 -97 -56 -130 -4 -11 -15 -36 -23 -55 -8
-19 -21 -52 -28 -72 -7 -21 -18 -38 -24 -38 -27 0 -225 158 -400 321 -225 208
-387 316 -598 401 -102 40 -302 91 -409 104 -29 4 -56 8 -59 10 -3 2 -32 6
-65 9 -32 3 -79 8 -104 11 -59 6 -575 15 -581 10z"/>
</g>
</svg>
