<svg id="edit_avatar" data-name="edit avatar" xmlns="http://www.w3.org/2000/svg" width="32" height="32" viewBox="0 0 32 32">
  <g id="Ellipse_9" data-name="Ellipse 9" fill="#fff" stroke="#787878" stroke-width="1">
    <circle cx="16" cy="16" r="16" stroke="none"/>
    <circle cx="16" cy="16" r="15.5" fill="none"/>
  </g>
  <path id="Path_108" data-name="Path 108" d="M133.484,132.685l10.507-10.505,3.232,3.233-10.507,10.5Zm0,0" transform="translate(-123.949 -113.453)" fill="#787878"/>
  <path id="Path_109" data-name="Path 109" d="M294.311,90.169a2.274,2.274,0,0,0-1.616.669l-.808.809,3.233,3.233.807-.809a2.286,2.286,0,0,0-1.617-3.9Zm0,0" transform="translate(-271.037 -83.727)" fill="#787878"/>
  <path id="Path_110" data-name="Path 110" d="M106.535,288.163l4.1-1.367-2.733-2.733Zm0,0" transform="translate(-98.925 -263.773)" fill="#787878"/>
  <path id="Path_111" data-name="Path 111" d="M16,0A16,16,0,1,0,32,16,16,16,0,0,0,16,0Zm9.7,11.152L13.076,23.771,5.8,26.2l2.426-7.273L20.849,6.3A3.429,3.429,0,0,1,25.7,11.152Zm0,0" fill="#787878"/>
</svg>
