<svg xmlns="http://www.w3.org/2000/svg" width="112" height="115" viewBox="0 0 112 115">
  <g id="Score" transform="translate(-192 -200)">
    <rect id="Rectangle_21" data-name="Rectangle 21" width="93" height="75" transform="translate(202 203.5)" fill="#fff"/>
    <g id="Rectangle_20" data-name="Rectangle 20" transform="translate(192 280)" fill="#36b1b8" stroke="#36b1b8" stroke-width="1">
      <rect width="112" height="35" rx="15" stroke="none"/>
      <rect x="0.5" y="0.5" width="111" height="34" rx="14.5" fill="none"/>
    </g>
    <path id="Subtraction_1" data-name="Subtraction 1" d="M-4045,1293.5h-72a19.372,19.372,0,0,1-13.789-5.711A19.371,19.371,0,0,1-4136.5,1274v-72a19.371,19.371,0,0,1,5.712-13.789A19.372,19.372,0,0,1-4117,1182.5h72a19.372,19.372,0,0,1,13.789,5.711A19.373,19.373,0,0,1-4025.5,1202v72a19.373,19.373,0,0,1-5.711,13.789A19.372,19.372,0,0,1-4045,1293.5Zm-18-55.5,3.4,4.341a.406.406,0,0,0-.215.359v2.5a4.985,4.985,0,0,0-1.764,3.807,4.993,4.993,0,0,0,4.988,4.987,4.993,4.993,0,0,0,4.988-4.987,4.979,4.979,0,0,0-1.766-3.808l0-2.5a.4.4,0,0,0-.215-.358l3.4-4.342h-4.816l-1.6,2.037-1.6-2.037Zm-48-16h0l3.4,4.341a.407.407,0,0,0-.215.359v2.5a4.981,4.981,0,0,0-1.764,3.806,4.994,4.994,0,0,0,4.988,4.988,4.994,4.994,0,0,0,4.988-4.988,4.974,4.974,0,0,0-1.766-3.807l0-2.5a.407.407,0,0,0-.215-.359l3.4-4.341h-4.816l-1.6,2.036-1.6-2.036H-4111Zm25.281-8.938a.464.464,0,0,0-.469.469.464.464,0,0,0,.469.468h9.438a.464.464,0,0,0,.469-.468.464.464,0,0,0-.469-.469h-.469v-2.406a.464.464,0,0,0-.468-.469h-.469v-.468a1.408,1.408,0,0,0-1.406-1.407.464.464,0,0,1-.469-.468v-.695a4.66,4.66,0,0,0,2.566-2.01l.5-.168a5.1,5.1,0,0,0,2.376-1.656,5.134,5.134,0,0,0,1.121-3.2v-.714a1.408,1.408,0,0,0-1.407-1.406h-13.188a1.407,1.407,0,0,0-1.406,1.406v.714a5.127,5.127,0,0,0,1.121,3.2,5.1,5.1,0,0,0,2.375,1.657l.5.167a4.661,4.661,0,0,0,2.567,2.01v.695a.464.464,0,0,1-.469.468,1.408,1.408,0,0,0-1.406,1.407v.468h-.468a.464.464,0,0,0-.468.469v2.406Zm15.062-17.306h0l.946.488a.457.457,0,0,0,.185.052h.027a.454.454,0,0,0,.144-.024.351.351,0,0,0,.042-.016.494.494,0,0,0,.089-.051.482.482,0,0,0,.194-.381.635.635,0,0,0-.006-.079l-.179-1.012.75-.723a.473.473,0,0,0,.148-.35.491.491,0,0,0-.017-.128.477.477,0,0,0-.384-.329l-1.051-.15-.468-.928a.461.461,0,0,0-.421-.234.463.463,0,0,0-.423.234l-.469.928-1.05.15a.477.477,0,0,0-.384.329.483.483,0,0,0,.131.478l.75.723-.178,1.012a.478.478,0,0,0,.188.46.472.472,0,0,0,.278.09.437.437,0,0,0,.21-.053l.946-.488Zm-20.686,0h0l.946.488a.46.46,0,0,0,.185.052h.027a.447.447,0,0,0,.144-.024.4.4,0,0,0,.043-.016.543.543,0,0,0,.088-.05.484.484,0,0,0,.193-.381.5.5,0,0,0-.006-.079l-.178-1.012.75-.723a.473.473,0,0,0,.148-.35.482.482,0,0,0-.017-.128.477.477,0,0,0-.384-.329l-1.051-.15-.468-.928a.462.462,0,0,0-.422-.234.462.462,0,0,0-.422.234l-.469.928-1.05.15a.477.477,0,0,0-.384.329.482.482,0,0,0,.131.478l.751.723-.179,1.012a.478.478,0,0,0,.188.46.471.471,0,0,0,.278.09.428.428,0,0,0,.208-.053l.947-.488Zm10.343-6.3h0l.946.487a.443.443,0,0,0,.185.053h.027a.478.478,0,0,0,.144-.023l.04-.016a.512.512,0,0,0,.091-.051.479.479,0,0,0,.194-.381.532.532,0,0,0-.006-.079l-.179-1.012.75-.723a.467.467,0,0,0,.148-.349.484.484,0,0,0-.017-.129.474.474,0,0,0-.384-.328l-1.051-.151-.468-.928a.46.46,0,0,0-.421-.234.461.461,0,0,0-.423.234l-.469.928-1.05.151a.474.474,0,0,0-.384.328.482.482,0,0,0,.131.477l.75.723-.178,1.012a.478.478,0,0,0,.188.46.471.471,0,0,0,.278.09.427.427,0,0,0,.21-.054l.946-.487Zm22,55.184v0l0-1.534h4.816v1.532a5.021,5.021,0,0,0-2.408-.617,4.992,4.992,0,0,0-2.408.62Zm-48-16v0l0-1.533h4.815v1.533a5.011,5.011,0,0,0-2.408-.618,5,5,0,0,0-2.409.62Zm21.48-24.679h0a4.19,4.19,0,0,1-1.627-1.235,4.193,4.193,0,0,1-.916-2.61v-.714a.469.469,0,0,1,.468-.469h1.454l.478,4.295a4.586,4.586,0,0,0,.144.732Zm9.037,0v0a4.538,4.538,0,0,0,.143-.731l.478-4.295h1.454a.469.469,0,0,1,.468.469v.714a4.2,4.2,0,0,1-.915,2.61,4.185,4.185,0,0,1-1.627,1.234Z" transform="translate(4329 -982)" fill="#43dde6" stroke="#36b1b8" stroke-width="1"/>
    <g id="Rectangle_17" data-name="Rectangle 17" transform="translate(216 264)" fill="#28858a" stroke="#36b1b8" stroke-width="1">
      <path d="M5,0h6a5,5,0,0,1,5,5V48a0,0,0,0,1,0,0H0a0,0,0,0,1,0,0V5A5,5,0,0,1,5,0Z" stroke="none"/>
      <path d="M5,.5h6A4.5,4.5,0,0,1,15.5,5V47a.5.5,0,0,1-.5.5H1A.5.5,0,0,1,.5,47V5A4.5,4.5,0,0,1,5,.5Z" fill="none"/>
    </g>
    <g id="Rectangle_18" data-name="Rectangle 18" transform="translate(264 280)" fill="#28858a" stroke="#36b1b8" stroke-width="1">
      <path d="M5,0h6a5,5,0,0,1,5,5V32a0,0,0,0,1,0,0H0a0,0,0,0,1,0,0V5A5,5,0,0,1,5,0Z" stroke="none"/>
      <path d="M5,.5h6A4.5,4.5,0,0,1,15.5,5V31a.5.5,0,0,1-.5.5H1A.5.5,0,0,1,.5,31V5A4.5,4.5,0,0,1,5,.5Z" fill="none"/>
    </g>
    <g id="Rectangle_19" data-name="Rectangle 19" transform="translate(240 240)" fill="#28858a" stroke="#36b1b8" stroke-width="1">
      <path d="M5,0h6a5,5,0,0,1,5,5V72a0,0,0,0,1,0,0H0a0,0,0,0,1,0,0V5A5,5,0,0,1,5,0Z" stroke="none"/>
      <path d="M5,.5h6A4.5,4.5,0,0,1,15.5,5V71a.5.5,0,0,1-.5.5H1A.5.5,0,0,1,.5,71V5A4.5,4.5,0,0,1,5,.5Z" fill="none"/>
    </g>
  </g>
</svg>
