<svg xmlns="http://www.w3.org/2000/svg" width="719.632" height="362.284" viewBox="0 0 719.632 362.284">
  <g id="Sportinnovatiecampus_Logo_003_" data-name="Sportinnovatiecampus_Logo (003)" transform="translate(-0.006 0.01)">
    <path id="Path_245" data-name="Path 245" d="M25.279,90.684a63.5,63.5,0,0,0,26.5,6.57A25.341,25.341,0,0,0,64.5,94.586a7.014,7.014,0,0,0,4.051-6c0-3.482-2.89-5.73-7.237-7.755-2.173-.939-4.619-1.877-7.41-2.816a90.84,90.84,0,0,1-16.918-6.94A27.44,27.44,0,0,1,24.316,57.81,25.662,25.662,0,0,1,22.29,47.116,23.562,23.562,0,0,1,33.973,25.48a47.767,47.767,0,0,1,24.081-5.656,74.96,74.96,0,0,1,24.18,4.051V43.139l-.222.272A81.063,81.063,0,0,0,73.12,41.46,87.432,87.432,0,0,0,59.733,40.3,34.33,34.33,0,0,0,48.668,41.83c-3.038,1.087-5.063,2.816-5.063,5.656,0,3.384,2.964,5.779,7.41,7.8a62.044,62.044,0,0,0,7.755,3.038,140.561,140.561,0,0,1,17.709,7.237A28.922,28.922,0,0,1,89.742,78.087a22.228,22.228,0,0,1,2.025,9.879,26.551,26.551,0,0,1-12.818,22.451A51.151,51.151,0,0,1,51.039,118.1a44.877,44.877,0,0,1-25.76-7.41Z" transform="translate(-22.25 -19.809)" fill="#fff"/>
    <path id="Path_246" data-name="Path 246" d="M55.68,115.736V20.4H80.8c17.931,0,30.3,2.47,38.332,7.607s11.435,12.868,11.435,23.365A28.057,28.057,0,0,1,115.006,77.5c-9.608,5.261-22.8,7.41-37.2,7.582v30.651ZM77.909,41.221V64.289h4.717a53.842,53.842,0,0,0,19.462-2.742c4.421-1.8,6.669-4.643,6.669-8.472,0-8.4-9.41-11.855-26.131-11.855Z" transform="translate(26.878 -18.928)" fill="#fff"/>
    <path id="Path_247" data-name="Path 247" d="M90.009,68.9a47.89,47.89,0,0,1,49.4-49.076,47.717,47.717,0,0,1,35.22,14.127A49.693,49.693,0,0,1,187.938,68.9a47.841,47.841,0,0,1-49.4,49.2,47.989,47.989,0,0,1-35.22-14.251A49.57,49.57,0,0,1,90.009,68.9Zm22.229-.741a30.552,30.552,0,0,0,7.163,20.7,28.156,28.156,0,0,0,39.74.519,29,29,0,0,0,6.866-19.759,30.873,30.873,0,0,0-6.866-20.7A25.341,25.341,0,0,0,139.381,40.6a26.5,26.5,0,0,0-19.907,7.9,28.354,28.354,0,0,0-7.237,19.66Z" transform="translate(77.314 -19.81)" fill="#fff"/>
    <path id="Path_248" data-name="Path 248" d="M135.4,115.736V20.4h27.168c15.634,0,27.563,2.47,35.664,7.607s12.349,13.164,12.349,24.377a37.714,37.714,0,0,1-4.174,18.524,32.107,32.107,0,0,1-10.941,11.065,32.726,32.726,0,0,0,10.052,12.349,56.386,56.386,0,0,0,13.115,7.755l.272.642-10.126,14.325c-6.446,0-13.806-3.754-20.253-9.188a56.263,56.263,0,0,1-14.819-19.24,107.267,107.267,0,0,1-16.2,1.21v25.909Zm22.229-74.293V68.809h2.618c19.882,0,28.5-4.5,28.5-14.547a9.879,9.879,0,0,0-5.656-9.632c-4.125-2.1-10.769-3.161-20.969-3.161Z" transform="translate(144.053 -18.928)" fill="#fff"/>
    <path id="Path_249" data-name="Path 249" d="M170.41,20.4h78.343V41.32H220.622v74.416H198.393V41.32H170.41Z" transform="translate(195.513 -18.928)" fill="#fff"/>
    <text id="US" transform="translate(536.638 326.274)" fill="#fff" font-size="142" font-family="SegoeUI-Bold, Segoe UI" font-weight="700"><tspan x="0" y="0">US</tspan></text>
    <text id="C" transform="translate(138.994 325.274)" fill="#fff" font-size="141" font-family="SegoeUI-Bold, Segoe UI" font-weight="700"><tspan x="0" y="0">C</tspan></text>
    <rect id="Rectangle_75" data-name="Rectangle 75" width="243.724" height="20.105" transform="translate(465.729 43.187)" fill="#fff"/>
    <rect id="Rectangle_76" data-name="Rectangle 76" width="120.281" height="20.105" transform="translate(2.584 280.144)" fill="#fff"/>
    <path id="Path_250" data-name="Path 250" d="M23.42,68.4H45.649v95.336H23.42Z" transform="translate(-20.539 51.624)" fill="#fff"/>
    <path id="Path_251" data-name="Path 251" d="M61.79,106.93v56.806H39.71V68.4H61.79l35.59,56.806V68.4h22.08v95.336H97.381Z" transform="translate(3.404 51.624)" fill="#fff"/>
    <path id="Path_252" data-name="Path 252" d="M101.676,106.93v56.806H79.62V68.4h22.056l35.59,56.806V68.4h22.08v95.336H137.365Z" transform="translate(62.066 51.624)" fill="#fff"/>
    <path id="Path_253" data-name="Path 253" d="M117.919,116.9a47.89,47.89,0,0,1,49.4-49.076,47.767,47.767,0,0,1,35.22,14.127A49.4,49.4,0,0,1,166.5,166.1a47.989,47.989,0,0,1-35.22-14.251A49.57,49.57,0,0,1,117.919,116.9Zm22.229-.741a30.552,30.552,0,0,0,7.163,20.7,28.156,28.156,0,0,0,39.74.519,29,29,0,0,0,6.866-19.759,30.873,30.873,0,0,0-6.866-20.7A25.341,25.341,0,0,0,167.291,88.6a26.5,26.5,0,0,0-19.907,7.9,28.354,28.354,0,0,0-7.335,19.66Z" transform="translate(118.337 50.742)" fill="#fff"/>
    <path id="Path_254" data-name="Path 254" d="M159.51,68.4H182.8l22.871,66.365L228.542,68.4h23.291l-32.849,95.336h-26.7Z" transform="translate(179.491 51.624)" fill="#fff"/>
    <path id="Path_255" data-name="Path 255" d="M262.492,146.768h-39l-5.854,16.968H194.25L227.025,68.4h32.281l32.849,95.336H268.345ZM230.68,126h24.7L243.029,90.11Z" transform="translate(230.554 51.624)" fill="#fff"/>
    <path id="Path_256" data-name="Path 256" d="M231,68.4h78.368V89.32H281.212v74.416H258.983V89.32H231Z" transform="translate(284.57 51.624)" fill="#fff"/>
    <path id="Path_257" data-name="Path 257" d="M266.79,68.4h22.229v95.336H266.79Z" transform="translate(337.176 51.624)" fill="#fff"/>
    <path id="Path_258" data-name="Path 258" d="M282.79,68.4h65.4V89.245H304.846v16.918h43.346v19.759H304.846v16.943h43.346v20.87h-65.4Z" transform="translate(360.693 51.624)" fill="#fff"/>
    <path id="Path_259" data-name="Path 259" d="M185.656,194.659H146.583L140.7,211.751H117.34l32.775-95.361H182.4l32.9,95.361H191.485ZM153.82,173.913h24.7L166.169,138Z" transform="translate(117.508 122.162)" fill="#fff"/>
    <path id="Path_260" data-name="Path 260" d="M228.947,159.913,218.1,182.142h-22.08l-11.213-22.451-.642,52.089H161.94l1.235-95.361H185.4l21.562,43.494L228.3,116.37h22.229l1.531,95.361H229.836Z" transform="translate(183.063 122.132)" fill="#fff"/>
    <path id="Path_261" data-name="Path 261" d="M206,211.795V116.36h25.118c17.931,0,30.3,2.47,38.332,7.582s11.509,12.893,11.509,23.365a28.058,28.058,0,0,1-15.684,26.131c-9.608,5.285-22.8,7.41-37.2,7.607v30.749Zm22.229-74.54v23.093h4.717a53.841,53.841,0,0,0,19.462-2.742c4.421-1.828,6.669-4.643,6.669-8.472,0-8.4-9.41-11.88-26.131-11.88Z" transform="translate(247.824 122.118)" fill="#fff"/>
  </g>
</svg>
