<svg xmlns="http://www.w3.org/2000/svg" width="752" height="208.321" viewBox="0 0 752 208.321">
  <g id="logo_sport_en_bewegen" transform="translate(0 -0.002)">
    <path id="Path_262" data-name="Path 262" d="M0,60.54c2.492-10.2,9.448-16.259,18.375-21.186C38.981,27.906,59.327,15.936,79.73,4.111a26.345,26.345,0,0,1,28.258,0q32.866,19.07,65.906,37.938a26.084,26.084,0,0,1,13.912,24.2v75.9a26.084,26.084,0,0,1-14.2,24.374q-32.779,18.809-65.5,37.677a26.345,26.345,0,0,1-28.287,0c-11.593-6.695-23.012-13.274-34.547-19.94-.985-.551-1.913-1.188-2.9-1.826a22.548,22.548,0,0,0,8.173-12.984,101.436,101.436,0,0,1,6.2-14.984,133.086,133.086,0,0,1,17.389-28.605c3.3-4.26,4.724-4.724,8.695-1.3a172.308,172.308,0,0,1,13.448,12.984c5.188,5.42,10.318,10.926,15.158,16.665,3.391,4.144,6.869,8.086,7.535,13.882,0,.9,1.8,1.739,2.9,2.406a58.137,58.137,0,0,0,5.362,2.724,16.375,16.375,0,0,0,6.028,2.261,6.637,6.637,0,0,0,4.811-2.9c.551-.869-.609-3.478-1.739-4.521a93.639,93.639,0,0,0-8.695-6.492c.869-1.391,1.42-2.406,2.058-3.333,1.623-2.348.927-4.115-1.043-6-3.565-3.391-6.927-6.985-10.173-10.637s-6.289-8.492-11.593-10.868c-1.681-.783-2.7-3.246-3.739-5.13-3.884-7.535-7.506-15.477-12.115-22.664-6.985-11.129-4.666-22.287-1.188-33.619,0-.2,0-.522.232-.638A140.8,140.8,0,0,1,103.235,59.5a65.037,65.037,0,0,1,11.593-4.029,16.636,16.636,0,0,1,4.521-1.3,64.428,64.428,0,0,1,7.68.609l-.725-2.348.956-.464-2.2-1.478,2.377-1.391-3.884-.783-.667-.58,2.9-.869L125,45.643c-1.652.29-3.826,1.3-4.811.609s-1.13-3.072-2.319-4.666a13.158,13.158,0,0,1-.377,2.087c-1.13,5.449-2.666,7.448-7.97,6.811-6.26-.783-10.463,2.9-15.332,5.13a10.984,10.984,0,0,1-7.159,1.594,15.592,15.592,0,0,0-5.8,1.3c-1.594.464-3.13,1.014-5.246,1.71,0-2.058-.29-3.681.319-4.7,2.55-4,.609-7.477-1.333-10.608a6.463,6.463,0,0,0-11.593,1.043,10.521,10.521,0,0,0,1.188,11.013,20.751,20.751,0,0,1,1.942,4.144H61.645a70.224,70.224,0,0,1-8.463.812,30.257,30.257,0,0,1-9.709-1.536,12.607,12.607,0,0,0-9.39-.551h-.348c-4.347,1.478-8.115,1.1-10.752-3.188a4.724,4.724,0,0,0-2.7-2.145l.84,4.376-4.985-1.275-.667,1.072,2,1.623-2.492.9,3.768,1.768-2.637,1.391,1.275,3.13a21.766,21.766,0,0,1,14.955.319,9.593,9.593,0,0,0,5.42.406,11.071,11.071,0,0,1,8.231,1.507c2.521,1.3,5.3,2.087,7.941,3.217A5.8,5.8,0,0,1,56.2,74.625c4.666,6.26,4.956,13.622,5.507,21.012.7,8.869-1.942,16.955-4.521,25.157a137.057,137.057,0,0,1-4.55,14.056c-1.391,3.13-4.289,5.536-5.97,8.695-2.2,4-3.826,8.347-5.8,12.462a21.679,21.679,0,0,1-3.594,5.449c-2.9,2.9-2.2,5.8.261,8.434l1.565,1.971-4.9,6.347c-8.376-5.014-16.665-9.622-24.548-14.781C4.173,159.833,1.826,153.921,0,147.806Z" transform="translate(0 0)" fill="#fff"/>
    <path id="Path_263" data-name="Path 263" d="M200.45,56.268,190.219,88.149c-.9,2.9-1.739,5.8-2.9,8.695a12.81,12.81,0,0,1-11.593,9.071,13.361,13.361,0,0,1-13.8-7.333,36.8,36.8,0,0,1-2.377-5.362q-10.057-28.2-20-56.457a58.148,58.148,0,0,1-2.058-7.3,9.825,9.825,0,0,1,6.289-12.288,11.825,11.825,0,0,1,14.752,4.2,17.215,17.215,0,0,1,1.739,4.115q6.26,20.519,12.433,41.068c.406,1.275.869,2.55,1.565,4.637l12.9-41.1c.551-1.768,1.043-3.565,1.681-5.3A11.129,11.129,0,0,1,200.45,16.3a10.666,10.666,0,0,1,11.419,8.289c4.637,14.259,9.042,28.577,13.564,42.894.319.956.667,1.913,1.246,3.594,3.246-10.694,6.289-20.693,9.3-30.721,1.507-4.956,2.9-9.941,4.463-14.9,2.348-7.651,8.289-10.984,15.448-8.695,6.434,2.029,9.361,8.115,6.869,15.419-4.956,14.491-10.144,28.982-15.245,43.473-2.435,6.84-4.753,13.738-7.449,20.49a13.709,13.709,0,0,1-12.984,9.593c-7.1,0-11.593-2.9-14-10.521-3.8-11.593-7.419-23.186-11.129-34.6C201.609,59.369,201.174,58.355,200.45,56.268Z" transform="translate(260.137 30.472)" fill="#fff"/>
    <path id="Path_264" data-name="Path 264" d="M98,48.063c10.463-8.695,21.853-9.8,33.735-6.115a26.838,26.838,0,0,1,20.288,25.012c.956,14.491.493,28.982.609,43.3a81.932,81.932,0,0,1-.406,10.347,11.594,11.594,0,0,1-23.186.348,27.735,27.735,0,0,1-.406-5.159q0-18.172,0-36.373V75.6c-.348-9.883-6.173-15.708-15.592-15.621-8.927,0-14.9,6.289-15.013,16v42.314c-.2,7.651-4.927,12.607-11.883,12.607s-11.767-4.985-11.8-12.636V14.994a11.821,11.821,0,1,1,23.621.377V44.353Z" transform="translate(141.106 5.405)" fill="#fff"/>
    <path id="Path_265" data-name="Path 265" d="M207.594,69.573c.377,8.376,7.333,15.1,16.665,16.665a28.982,28.982,0,0,0,18.78-3.159c3.188-1.623,6.289-3.478,9.535-4.927a8.869,8.869,0,0,1,11.419,2.9,8.984,8.984,0,0,1,.348,11.767,23.187,23.187,0,0,1-5.8,5.42,54.429,54.429,0,0,1-43.821,7.593c-19.969-5.159-32.46-22.983-31.88-44.836.493-19.476,11.593-36.286,27.939-42.6,23.823-9.187,50.69,5.941,56.428,31.881a40.135,40.135,0,0,1,1.014,8.927c0,7.188-3.159,10.318-10.4,10.347H211.3Zm36.6-16.056a18.52,18.52,0,1,0-37.039,0Z" transform="translate(347.041 29.774)" fill="#fff"/>
    <path id="Path_266" data-name="Path 266" d="M105.92,63.843c.348-16.578,5.42-29.214,16.839-38.778a40.575,40.575,0,0,1,59.5,8.376c11.593,16.81,12.289,34.779,2.9,52.719-8.4,15.853-24.693,23.186-43.473,20.838-16.288-2.174-30.084-15.274-34.17-32.692A92.549,92.549,0,0,1,105.92,63.843Zm62.428-1.913-.956-.319a28.982,28.982,0,0,0-4.231-15.8,16.723,16.723,0,0,0-28.982,0,29.881,29.881,0,0,0-.551,30.721,16.056,16.056,0,0,0,15.245,9.042,15.477,15.477,0,0,0,14.781-9.129,112.62,112.62,0,0,0,4.7-14.52Z" transform="translate(201.06 29.765)" fill="#fff"/>
    <path id="Path_267" data-name="Path 267" d="M247.841,107.47a50.719,50.719,0,0,1-24.49-6.956,26.868,26.868,0,0,1-6.086-5.072,9.071,9.071,0,0,1-.928-11.8,9.68,9.68,0,0,1,11.187-4.956,48.574,48.574,0,0,1,9.8,4.434,24.461,24.461,0,0,0,15.969,3.217,5.8,5.8,0,0,0,5.536-4.9,5.565,5.565,0,0,0-3.3-6.26c-3.594-1.826-7.362-3.275-11.042-4.927-4.84-2.174-9.854-4.058-14.491-6.666-18.781-10.579-14.085-33.619-.783-42.227,12.2-7.912,33.156-7.448,44.691,1.362,5.449,4.144,7.13,9.97,4.463,15.216a9.129,9.129,0,0,1-11.97,4.637c-4.2-1.623-8.231-3.739-12.52-4.985a17.389,17.389,0,0,0-8.695-.319,7.014,7.014,0,0,0-4.289,4.637,6.318,6.318,0,0,0,2.464,5.391,93.443,93.443,0,0,0,11.593,5.536c4.927,2.261,10.057,4.144,14.752,6.811,17.882,10.144,14.346,31.881,1.478,41.039a40.575,40.575,0,0,1-23.331,6.782Z" transform="translate(407.332 29.902)" fill="#fff"/>
    <path id="Path_268" data-name="Path 268" d="M255.288,55.307c-12.491-1.072-15.679-3.275-15.708-10.434s3.333-9.535,15.708-10.955V26.846c0-3.1,0-6.26.261-9.332A11.216,11.216,0,0,1,266.012,7.081a10.984,10.984,0,0,1,12.462,9.042,64.654,64.654,0,0,1,.609,10.347v7.8h7.622c6.811.406,10.492,4.115,10.492,10.434a9.535,9.535,0,0,1-9.506,10.231c-2.724.2-5.478,0-8.695,0v53.588a24.583,24.583,0,0,1-.638,5.8,11.129,11.129,0,0,1-11.97,8.695,11.3,11.3,0,0,1-10.9-9.8,34.788,34.788,0,0,1-.29-5.507q0-24.084,0-48.169Z" transform="translate(454.778 13.203)" fill="#fff"/>
    <path id="Path_269" data-name="Path 269" d="M210.556,71.682c-2.261,7.506-4.463,14.984-6.753,22.461-1.333,4.347-4.521,6.724-8.2,5.362a8.347,8.347,0,0,1-4.811-4.637c-3.043-11.593-5.8-23.186-8.318-35.011a4.434,4.434,0,0,1,3.246-5.8,4.753,4.753,0,0,1,6.144,4.058c1.739,8,3.275,16.056,4.9,24.055a2.9,2.9,0,0,0,1.159,1.855q2.232-7.159,4.376-14.346c1.043-3.536,2.087-7.072,3.072-10.637.811-2.9,2.261-5.217,5.623-5.13s4.492,2.319,5.3,5.1c2.261,7.738,4.579,15.477,6.9,23.186.232.725.551,1.42,1.159,2.9,1.826-9.158,3.478-17.389,5.217-25.765.29-1.42.725-3.42,1.739-3.971a8.289,8.289,0,0,1,5.8-.927c2.724.783,2.7,3.478,2.174,5.8-1.623,7.333-3.362,14.491-5.072,21.911-.956,4.173-1.971,8.318-2.9,12.462a6.057,6.057,0,0,1-6.26,5.362,6.318,6.318,0,0,1-6.811-5.1l-7.043-23.186Z" transform="translate(345.904 102.207)" fill="#fff"/>
    <path id="Path_270" data-name="Path 270" d="M149.852,73a16.466,16.466,0,0,1-2.029-2.724,18.318,18.318,0,0,1-1.768-4.782,9.448,9.448,0,0,1,5.333-10A16.9,16.9,0,0,1,169.1,56.887a7.738,7.738,0,0,1,2.753,9.564,61.469,61.469,0,0,1-6.666,9.245c.348.435,1.362,1.594,2.406,2.753s2.145,2.377,3.333,3.681c1.391-1.449,2.608-2.9,3.913-4.115s4-2.492,5.478-.609a6.7,6.7,0,0,1,.609,5.507,21.793,21.793,0,0,1-4.029,5.478c1.391,1.594,2.9,3.217,4.231,4.9a4.028,4.028,0,0,1-.174,6.144,4.173,4.173,0,0,1-6.2,0c-1.536-1.391-2.9-2.9-3.855-3.913a72.193,72.193,0,0,1-12.665,5.014c-10.781,2-19.215-5.8-17.621-15.911C141.563,79.2,145.331,75.957,149.852,73Zm14.491,15.448c-2.724-2.9-5.391-6.057-8.144-8.985a2.174,2.174,0,0,0-1.71-.609,8.7,8.7,0,0,0-4.724,7.883,5.8,5.8,0,0,0,5.8,5.391,10.086,10.086,0,0,0,8.753-3.681Zm-5.217-18.983c2.174-1.333,4.84-2.464,4.231-5.507a4.492,4.492,0,0,0-3.275-2.724A4.985,4.985,0,0,0,156,63.292c-1.246,2.811,1.072,4.492,3.1,6.173Z" transform="translate(266.536 101.787)" fill="#fff"/>
    <path id="Path_271" data-name="Path 271" d="M250.411,72.335V93.811c0,4.318-1.478,6.144-4.811,6.173s-4.84-1.855-4.84-6.144V59.9c0-2.579.348-4.956,3.246-5.8a5.565,5.565,0,0,1,6.463,2.9c5.536,7.419,11.1,14.781,16.636,22.171.754.985,1.536,1.913,2.9,3.652V58.452a4.492,4.492,0,0,1,4.956-4.666,4.434,4.434,0,0,1,4.608,4.956v28.75a35.476,35.476,0,0,1,0,7.246c-.406,1.8-1.565,4.26-2.9,4.782a7.188,7.188,0,0,1-5.507-1.536,25.387,25.387,0,0,1-4.318-5.362L251.165,72.016Z" transform="translate(457.018 102.048)" fill="#fff"/>
    <path id="Path_272" data-name="Path 272" d="M183.516,74.477c8,3.855,10.463,8.521,8.347,15.737a11.361,11.361,0,0,1-10.115,8.695,149.9,149.9,0,0,1-17.679.464,4.637,4.637,0,0,1-4.782-5.246c0-11.593,0-23.186,0-34.982,0-3.594,1.739-5.159,5.478-5.217s7.854,0,11.8,0a11.593,11.593,0,0,1,11.593,7.333C189.8,66.159,188.327,70.564,183.516,74.477Zm-14.491,16.4h8.231a4.9,4.9,0,0,0,5.1-4.985,4.492,4.492,0,0,0-4.405-5.13c-2.9-.29-5.8,0-8.927,0Zm0-18.925c3.478-.261,7.188,1.159,9.129-2.377a5.8,5.8,0,0,0,0-5.1c-2.174-3.159-5.8-2.029-9.042-1.971Z" transform="translate(302.285 102.311)" fill="#fff"/>
    <path id="Path_273" data-name="Path 273" d="M246.162,81.738h-6.086a4.115,4.115,0,0,1-4.405-4.666,4.029,4.029,0,0,1,4.637-4.058H251.06c3.594,0,5.3,1.623,5.594,5.536a20.664,20.664,0,0,1-23.707,21.969A21.389,21.389,0,0,1,214.485,83.68,24.838,24.838,0,0,1,222.948,57.6a25.214,25.214,0,0,1,26.287-.522,13.014,13.014,0,0,1,2.406,1.971,4.579,4.579,0,0,1,.725,6.521c-1.768,2.232-4.057,1.652-6.289.551a30.114,30.114,0,0,0-7.506-3.3c-9.535-1.565-16,5.8-14.781,16.2,1.014,8.695,6,13.477,13.274,12.752a9.216,9.216,0,0,0,9.1-10.028Z" transform="translate(405.417 101.803)" fill="#fff"/>
    <path id="Path_274" data-name="Path 274" d="M143.04,77.167c0,18.259-17.042,29.272-32.547,20.954C100.407,92.7,96.176,78.935,100.958,67.2A21.418,21.418,0,0,1,127.042,54.5,22.693,22.693,0,0,1,143.04,77.167Zm-9.448.783a60.565,60.565,0,0,0-2.029-8.2,11.274,11.274,0,0,0-20.954,0,18.23,18.23,0,0,0,.522,16.346,11.1,11.1,0,0,0,19.36.667,43.473,43.473,0,0,0,3.1-8.811Z" transform="translate(187.909 101.737)" fill="#fff"/>
    <path id="Path_275" data-name="Path 275" d="M136.567,80.667c3.565,3.855,6.811,7.275,10,10.781a4.608,4.608,0,0,1,0,7.217,4.985,4.985,0,0,1-7.275-1.13c-2.29-2.608-4.434-5.3-6.637-7.97a52.169,52.169,0,0,0-7.13-7.535c0,3.942.261,7.912,0,11.825a8,8,0,0,1-2.463,5.246,4.492,4.492,0,0,1-7.014-4.029q0-18.172,0-36.315c0-2.7,1.275-4.666,4.029-4.724a113.35,113.35,0,0,1,16.607.348,12,12,0,0,1,11.361,11.883c.551,7.188-2.261,11.245-9.477,13.709Zm-10.752-6.521c4.26-.58,8.956,1.565,11.419-2.9a7.1,7.1,0,0,0-.493-6.347c-2.9-3.623-7.13-1.536-10.926-2.058Z" transform="translate(220.263 102.265)" fill="#fff"/>
    <path id="Path_276" data-name="Path 276" d="M90.5,53.46a81.785,81.785,0,0,1,9.187,2.724,4.289,4.289,0,0,1,2.579,6.2c-1.217,2.724-3.391,3.1-6.086,2.29a16.839,16.839,0,0,0-6.695-1.333A6.608,6.608,0,0,0,85,66.618c-.956,2.29,1.391,3.333,3.275,4,3.13,1.159,6.376,2.087,9.477,3.275a11.97,11.97,0,0,1,8.2,11.332A13.39,13.39,0,0,1,99.458,98.18c-7.39,4.434-15.071,3.536-22.548,0a4.666,4.666,0,0,1-2.435-6.463c1.159-2.9,3.652-2.9,6.173-2.145a38.834,38.834,0,0,0,4.318,1.3,23.186,23.186,0,0,0,6.144.435,4.318,4.318,0,0,0,4.376-4.405,6.9,6.9,0,0,0-3.188-4.26A23.186,23.186,0,0,0,86.1,80.5C76.852,77.6,73.432,73.69,74.5,66.473S81.924,53.953,90.5,53.46Z" transform="translate(140.399 101.475)" fill="#fff"/>
    <path id="Path_277" data-name="Path 277" d="M96.456,84.347V94.462c0,3.217-1.565,5.217-4.55,5.3A4.463,4.463,0,0,1,86.92,94.81V58.785a4.55,4.55,0,0,1,5.13-4.869h12.491a15.187,15.187,0,0,1,.464,30.344C102.368,84.521,99.7,84.347,96.456,84.347Zm.2-8.289c4.492-.464,9.187,1.3,12-3.333a6.521,6.521,0,0,0-.435-7.825c-3.13-3.884-7.448-2.348-11.593-2.434Z" transform="translate(164.936 102.266)" fill="#fff"/>
    <path id="Path_278" data-name="Path 278" d="M240.006,62.866v9.187h9.361c3.71,0,5.8,1.768,5.8,4.579s-2.116,4.26-5.594,4.318h-9.3v9.68h10.608c3.536,0,5.478,1.565,5.478,4.347s-1.913,4.463-5.42,4.521H236.006c-4.029,0-5.8-1.768-5.8-5.8V60.083c0-4.608,1.681-6.144,6.376-6.173h13.535c3.623,0,5.507,1.507,5.565,4.289s-2,4.55-5.8,4.608S243.571,62.866,240.006,62.866Z" transform="translate(436.991 102.329)" fill="#fff"/>
    <path id="Path_279" data-name="Path 279" d="M182.187,62.779V72h9.158c3.739,0,5.8,1.681,5.8,4.492s-2.145,4.376-5.8,4.434h-9.1V90.6h10.723c3.565,0,5.42,1.536,5.362,4.405s-2.2,4.434-5.072,4.463H177.985c-4.029,0-5.565-1.8-5.565-5.8V60.4c0-4.927,1.507-6.405,6.434-6.434s9.245,0,13.882,0c3.275,0,5.188,1.71,5.043,4.376-.145,3.159-2.145,4.434-5.072,4.492C189.288,62.779,185.955,62.779,182.187,62.779Z" transform="translate(327.293 102.416)" fill="#fff"/>
    <path id="Path_280" data-name="Path 280" d="M213.261,62.976v9.216h9.332c3.71,0,5.8,1.8,5.8,4.608s-2.116,4.231-5.623,4.318h-8.695a3.184,3.184,0,0,0-.551.232v9.361h10.752c2.9,0,5.014.927,5.217,4.173s-1.623,4.608-5.159,4.7H209.059c-3.855,0-5.42-1.8-5.449-5.8V59.846c0-4.318,1.652-5.8,5.8-5.941H223.9a4.26,4.26,0,0,1,4.927,4.2c.232,2.7-1.652,4.55-4.84,4.666S217.087,62.976,213.261,62.976Z" transform="translate(386.498 102.219)" fill="#fff"/>
    <path id="Path_281" data-name="Path 281" d="M147.911,62.914V91.606a32.861,32.861,0,0,1,0,4.144,4.753,4.753,0,0,1-9.274.464,18.173,18.173,0,0,1-.261-3.768c0-9.709,0-19.389,0-29.649h-6.26c-3.333-.145-5.043-1.739-4.985-4.521s1.8-4.347,5.13-4.347H154.49a4.2,4.2,0,0,1,4.811,4.289c.174,2.9-1.507,4.434-4.811,4.608C152.4,62.914,150.433,62.914,147.911,62.914Z" transform="translate(241.321 102.281)" fill="#fff"/>
  </g>
</svg>
