<svg height="512" viewBox="0 0 58 58" width="512" xmlns="http://www.w3.org/2000/svg"><g id="Page-1" fill="none" fill-rule="evenodd"><g id="016---Banana-Peel" fill-rule="nonzero" transform="translate(0 -1)"><path id="Shape" d="m56.58 50.5c1.410438-1.4389277 1.8193609-3.5838515 1.037267-5.4407783-.7820939-1.8569269-2.602364-3.0629671-4.617267-3.0592217h-10c-2.7614237 0-5-2.2385763-5-5h-18c0 2.7614237-2.2385763 5-5 5h-10c-2.0116731.0029464-3.82625063 1.2095589-4.6070903 3.0635078-.78083968 1.853949-.37630344 3.9952 1.0270903 5.4364922h24.247l3.333-6 2.917 6z" fill="#f29c1f"/><path id="Shape" d="m58 53.819c.0000928 1.3845458-.5539895 2.7115284-1.5386312 3.6848977s-2.3179159 1.5121364-3.7023688 1.4961023h-10.759c-7.1797017 0-13-5.8202983-13-13 0 7.1797017-5.8202983 13-13 13h-10.759c-1.38445292.0160341-2.71772715-.522733-3.70236881-1.4961023s-1.53872404-2.3003519-1.53863119-3.6848977c.08922264-2.6941626 2.30437948-4.8291307 5-4.819h10c2.7614237 0 5-2.2385763 5-5v-28c-.0005788-3.7580126 2.3339034-7.12078342 5.855-8.434.6860096-.25494126 1.1805927-.86083415 1.293-1.584.2462855-1.60908679.8252651-3.1491724 1.7-4.522.1629115-.25559513.4329567-.42350817.734249-.45655314.3012923-.03304496.6013127.07234476.815751.28655314l1.43 1.43c.3162222.31488265.3818212.80277538.16 1.19-.2416923.42554064-.4387399.87492982-.588 1.341-.329611.97017513.1341855 2.03170573 1.07 2.449 3.3424163 1.40564265 5.5200451 4.6740548 5.53 8.3v28c0 2.7614237 2.2385763 5 5 5h10c2.6956205-.0101307 4.9107774 2.1248374 5 4.819z" fill="#f0c419"/><g fill="#67b9cc"><path id="Shape" d="m10.293 6.293-3.293 3.293-3.293-3.293c-.39237889-.37897221-1.01608478-.37355237-1.40181858.01218142-.38573379.3857338-.39115363 1.00943969-.01218142 1.40181858l4.062 4.063c.23818582.2412875.58293032.3445282.91453297.2738754s.60432249-.3054534.72346703-.6228754l3.714-3.714c.2599566-.25107447.3642126-.62287789.2726972-.97250732-.0915155-.34962944-.3645604-.6226744-.7141899-.71418984-.3496294-.09151544-.7214328.01274058-.9725073.27269716z"/><path id="Shape" d="m51.293 23.293-3.293 3.293-3.293-3.293c-.3923789-.3789722-1.0160848-.3735524-1.4018186.0121814s-.3911536 1.0094397-.0121814 1.4018186l3.875 3.875c.1874927.1875494.4418052.2929434.707.293.042095-.0055806.0838315-.013594.125-.024.0411685.010406.082905.0184194.125.024.2651948-.0000566.5195073-.1054506.707-.293l3.875-3.875c.3789722-.3923789.3735524-1.0160848-.0121814-1.4018186s-1.0094397-.3911536-1.4018186-.0121814z"/><path id="Shape" d="m57.707 9.293c-.3904999-.39038194-1.0235001-.39038194-1.414 0l-3.293 3.293-3.293-3.293c-.3923789-.37897221-1.0160848-.37355237-1.4018186.01218142-.3857338.3857338-.3911536 1.00943968-.0121814 1.40181858l4 4c.3904999.3903819 1.0235001.3903819 1.414 0l4-4c.3903819-.3904999.3903819-1.02350015 0-1.414z"/></g><path id="Shape" d="m29 40c-.5522847 0-1-.4477153-1-1v-22c0-.5522847.4477153-1 1-1s1 .4477153 1 1v22c0 .5522847-.4477153 1-1 1z" fill="#f29c1f"/><circle id="Oval" cx="7" cy="11" fill="#2fa8cc" r="3"/><circle id="Oval" cx="48" cy="28" fill="#2fa8cc" r="3"/><circle id="Oval" cx="53" cy="14" fill="#2fa8cc" r="3"/><path id="Shape" d="m32.12 7.5c-.750912.94084725-1.8867077 1.49205951-3.0904527 1.49982561-1.2037451.0077661-2.3465583-.52874546-3.1095473-1.45982561.6506861-.27427668 1.1150938-.86328151 1.23-1.56.245497-1.60866988.8245466-3.14826064 1.7-4.52.1629115-.25559513.4329567-.42350817.734249-.45655314.3012923-.03304496.6013127.07234476.815751.28655314l1.43 1.43c.3162222.31488265.3818212.80277538.16 1.19-.2387341.42693676-.4362915.87562657-.59 1.34-.2715851.82678654.0188768 1.7344801.72 2.25z" fill="#a56a43"/></g></g></svg>