<svg id="Capa_1" enable-background="new 0 0 512 512" height="512" viewBox="0 0 512 512" width="512" xmlns="http://www.w3.org/2000/svg"><path d="m151 105v21h-90v-21c0-24.81 20.19-45 45-45s45 20.19 45 45z" fill="#547983"/><path d="m61 296h90v131h-90z" fill="#547983"/><g fill="#3e5959"><path d="m166 422h-120c-8.284 0-15 6.716-15 15s6.716 15 15 15h120c8.284 0 15-6.716 15-15s-6.716-15-15-15z"/><path d="m451 105v21h-90v-21c0-24.81 20.19-45 45-45s45 20.19 45 45z"/><path d="m361 296h90v131h-90z"/></g><path d="m466 422h-120c-8.284 0-15 6.716-15 15s6.716 15 15 15h120c8.284 0 15-6.716 15-15s-6.716-15-15-15z" fill="#293939"/><path d="m477 121h-442c-19.299 0-35 15.701-35 35v110c0 19.299 15.701 35 35 35h442c19.299 0 35-15.701 35-35v-110c0-19.299-15.701-35-35-35z" fill="#fed941"/><path d="m512 156v110c0 19.3-15.7 35-35 35h-221v-180h221c19.3 0 35 15.7 35 35z" fill="#fcbe29"/><path d="m306.96 121-221.92 180h-50.04c-17.19 0-31.52-12.45-34.45-28.8v-.01l186.41-151.19z" fill="#fe9022"/><path d="m306.96 121-50.96 41.33v-41.33z" fill="#fd6328"/><path d="m511.17 148.41-188.12 152.59h-118.01l221.92-180h50.04c16.7 0 30.7 11.75 34.17 27.41z" fill="#fe9022"/><path d="m511.17 148.41-188.12 152.59h-67.05v-41.33l170.96-138.67h50.04c16.7 0 30.7 11.75 34.17 27.41z" fill="#fd6328"/></svg>